<?xml version="1.0" standalone="no"?>
<!DOCTYPE svg PUBLIC "-//W3C//DTD SVG 20010904//EN"
 "http://www.w3.org/TR/2001/REC-SVG-20010904/DTD/svg10.dtd">
<svg version="1.0" xmlns="http://www.w3.org/2000/svg"
 width="663.000000pt" height="663.000000pt" viewBox="0 0 663.000000 663.000000"
 preserveAspectRatio="xMidYMid meet">
<metadata>
Created by potrace 1.14, written by Peter Selinger 2001-2017
</metadata>
<g transform="translate(0.000000,663.000000) scale(0.100000,-0.100000)"
fill="#000000" stroke="none">
<path d="M1621 6593 c-6 -21 -15 -85 -22 -143 -6 -57 -13 -108 -15 -112 -2 -3
-35 -23 -72 -44 -114 -63 -372 -238 -482 -327 -58 -47 -143 -123 -190 -169
-47 -46 -118 -109 -158 -141 l-72 -58 -305 -61 -305 -61 0 -2738 0 -2739 705
0 705 0 158 127 c86 70 197 160 246 200 l90 73 25 -23 c15 -13 72 -56 129 -96
56 -40 102 -78 102 -84 0 -5 -32 -52 -70 -104 l-70 -93 37 0 c35 0 41 4 68 49
17 28 66 87 110 131 l79 82 78 -7 c176 -15 336 -86 504 -222 l41 -33 1492 0
1491 0 -152 193 c-328 415 -298 380 -317 363 -16 -15 -25 -6 -127 111 -60 70
-119 143 -130 162 l-22 35 79 158 c181 362 338 796 444 1228 43 179 182 827
225 1050 31 163 39 188 58 176 17 -11 -32 -316 -112 -685 -67 -306 -88 -429
-131 -761 -14 -107 -43 -283 -65 -390 -53 -258 -164 -719 -182 -756 -12 -23
-42 -109 -73 -211 -6 -17 43 -45 66 -38 47 15 241 305 359 537 74 145 120 251
295 688 32 80 63 159 70 175 7 17 18 53 25 80 8 28 21 66 31 85 10 19 20 46
23 60 3 14 15 52 26 85 29 86 86 320 110 460 12 66 25 127 29 135 4 8 5 26 1
40 -4 14 -3 54 1 90 16 121 30 664 23 915 -7 291 -10 278 90 434 l66 104 0
357 0 357 -56 -13 c-31 -7 -59 -15 -62 -19 -3 -3 6 -31 22 -61 31 -64 66 -221
66 -296 0 -139 -91 -181 -243 -114 -32 14 -59 26 -61 26 -2 0 -6 -30 -9 -66
-6 -82 -24 -107 -103 -151 l-60 -33 -54 178 c-75 251 -166 507 -206 578 -19
33 -34 70 -34 82 0 11 14 32 32 47 45 38 275 151 376 185 98 32 272 70 325 70
70 0 67 -9 67 211 l0 198 -37 8 c-57 12 -476 10 -480 -3 -2 -5 -18 -8 -37 -6
-18 2 -141 -8 -273 -22 -161 -18 -249 -23 -265 -17 -13 5 -98 55 -188 111
-199 123 -515 280 -702 350 -173 64 -379 122 -440 124 -25 0 -44 4 -42 7 9 16
-115 19 -754 19 l-683 0 6 -21 c9 -29 -12 -74 -40 -87 -14 -6 -53 -19 -87 -28
-35 -9 -115 -33 -178 -54 -93 -32 -144 -42 -268 -54 -191 -20 -188 -20 -212 4
-30 30 -25 70 18 131 21 30 41 59 45 66 5 8 -3 18 -22 28 -24 12 -66 15 -195
15 l-165 0 -10 -37z m-46 -373 l38 -39 -21 -73 c-12 -40 -22 -88 -22 -105 0
-30 3 -33 30 -33 17 0 47 7 67 15 46 19 103 19 131 -1 30 -21 29 -70 -3 -125
-40 -71 -35 -91 45 -170 101 -101 100 -98 28 -149 -34 -24 -67 -43 -73 -43 -6
0 -53 28 -105 63 -52 35 -131 82 -175 105 -75 38 -80 43 -98 90 -23 63 -51 89
-90 81 -17 -3 -83 -36 -149 -72 -124 -70 -185 -87 -227 -64 -20 10 -22 18 -19
67 l3 55 295 218 c162 120 297 219 300 219 3 1 23 -17 45 -39z m1089 -320 c10
-10 -17 -95 -50 -161 -21 -43 -91 -114 -328 -331 l-60 -55 97 -73 c54 -40 103
-84 110 -98 7 -16 45 -43 102 -73 93 -50 127 -81 107 -101 -14 -14 -133 26
-171 58 -16 13 -31 37 -35 54 -5 26 -8 29 -24 19 -15 -9 -39 1 -142 61 -124
71 -126 72 -185 67 -41 -3 -84 -16 -135 -41 -92 -44 -129 -52 -154 -33 -25 18
-23 80 4 160 19 57 30 70 130 162 103 94 127 110 382 251 241 134 277 151 308
147 19 -3 39 -9 44 -13z m87 -932 c30 -12 95 -50 146 -85 50 -35 213 -124 361
-199 198 -99 269 -139 265 -150 -3 -8 -9 -14 -14 -14 -12 0 -660 323 -735 367
-34 20 -69 48 -78 63 -28 48 -23 50 55 18z m2768 -579 l48 -20 6 -255 7 -255
-26 -28 c-33 -38 -69 -47 -101 -26 -28 19 -73 108 -73 146 0 45 -21 89 -49
103 -15 8 -56 20 -91 26 -127 22 -395 83 -410 92 -20 12 274 0 411 -17 57 -7
107 -11 110 -9 4 2 10 25 14 51 13 87 44 171 72 192 31 25 24 25 82 0z m-3389
-186 l0 -63 -50 0 c-27 0 -50 2 -50 5 0 3 19 36 42 75 48 80 58 77 58 -17z
m4267 -35 l28 -42 0 -240 0 -241 -43 1 c-34 1 -50 7 -77 34 -35 34 -67 104
-80 172 -6 31 -14 38 -73 67 -60 28 -89 34 -279 55 -117 13 -217 27 -223 31
-5 3 -10 29 -10 56 l0 51 63 -6 c34 -4 152 -11 261 -16 182 -9 202 -9 235 7
20 10 43 32 51 48 8 17 16 32 17 34 2 2 24 10 50 17 27 7 49 13 50 13 2 1 15
-18 30 -41z m-5078 7 c16 -8 40 -28 54 -45 l26 -30 -25 -62 c-14 -35 -30 -74
-36 -88 -6 -14 -13 -29 -14 -35 -1 -5 -33 -118 -69 -250 -53 -192 -70 -270
-84 -392 -9 -84 -20 -155 -23 -159 -11 -10 -46 122 -63 236 -8 58 -17 116 -19
130 -2 14 0 81 6 150 5 69 11 177 13 240 5 160 16 282 27 303 7 14 23 17 94
17 55 0 95 -5 113 -15z m792 -81 c3 -2 9 -59 12 -128 4 -68 11 -144 16 -168
12 -54 24 -160 36 -302 0 -12 -5 -33 -12 -48 l-13 -27 -67 23 c-38 13 -115 33
-173 45 -145 31 -140 28 -140 60 0 36 215 532 237 549 16 11 82 9 104 -4z
m2324 -124 c9 -52 34 -154 56 -226 23 -76 39 -146 37 -165 l-3 -34 -55 1 c-30
1 -117 2 -192 3 -76 1 -138 5 -138 9 0 34 263 522 275 510 2 -2 11 -46 20 -98z
m-2708 48 c-3 -7 -5 -2 -5 12 0 14 2 19 5 13 2 -7 2 -19 0 -25z m737 -160 c5
-22 37 -400 36 -426 0 -14 47 -62 61 -62 12 0 11 89 -2 233 -14 165 -4 180
144 198 l84 10 114 -63 c109 -59 118 -63 198 -68 76 -4 86 -8 103 -31 l20 -26
-33 -59 c-77 -138 -270 -540 -320 -666 -29 -76 -56 -138 -59 -138 -3 0 -27 60
-54 133 -27 72 -67 170 -89 217 -21 47 -48 109 -59 138 l-19 52 -48 0 c-30 0
-77 12 -132 34 l-84 34 -3 59 c-3 54 38 226 99 421 12 37 36 43 43 10z m1426
-12 c0 -13 -12 -75 -26 -137 -18 -78 -26 -142 -26 -204 1 -49 -6 -160 -14
-245 -8 -85 -17 -209 -20 -276 l-7 -120 28 -22 c22 -18 41 -22 97 -22 52 0 69
-3 65 -12 -3 -7 -24 -60 -47 -118 -39 -97 -43 -118 -58 -269 -12 -128 -13
-181 -5 -239 16 -108 67 -206 154 -292 38 -39 68 -70 67 -70 -2 0 -25 7 -52
15 -61 19 -62 19 -70 -1 -17 -45 85 -110 186 -121 94 -9 200 36 178 77 -8 15
-4 24 24 47 94 79 222 299 277 474 17 54 35 101 40 104 15 10 10 34 -8 44 -10
5 -39 5 -68 1 -47 -8 -54 -6 -107 28 l-58 37 0 62 0 62 38 10 c64 18 107 14
141 -15 l30 -25 45 30 c44 30 45 31 87 15 24 -8 55 -26 69 -39 14 -14 41 -30
59 -36 26 -9 38 -23 56 -64 45 -101 47 -93 -80 -400 -84 -204 -124 -288 -147
-312 -20 -20 -70 -49 -138 -77 -58 -25 -187 -84 -285 -133 -171 -84 -183 -92
-272 -178 -74 -73 -93 -97 -99 -127 -8 -51 -1 -65 43 -85 21 -10 40 -19 42
-20 3 -2 -6 -14 -19 -28 -27 -29 -157 -85 -197 -85 -15 0 -80 -13 -144 -29
-184 -47 -456 -81 -649 -81 -66 0 -91 -4 -113 -19 -16 -10 -25 -21 -20 -24 27
-17 157 -17 333 -2 166 14 224 24 392 66 188 47 199 49 223 33 29 -19 34 -5
-71 -175 -109 -178 -118 -191 -226 -324 -53 -66 -120 -157 -150 -202 -53 -82
-199 -223 -230 -223 -34 0 -157 315 -232 595 l-43 160 -59 16 c-72 19 -100 33
-114 59 -7 14 -21 20 -44 20 -30 0 -40 -7 -84 -67 -84 -113 -125 -146 -251
-202 -79 -35 -128 -51 -156 -51 l-42 0 -7 183 c-9 243 -9 378 -1 400 14 34 66
19 245 -69 210 -103 326 -153 399 -170 l54 -13 -37 38 c-30 31 -57 45 -139 71
-101 33 -160 61 -347 165 -52 29 -106 56 -120 60 -14 4 -65 36 -115 70 -214
149 -458 385 -502 484 -13 30 -46 91 -72 135 -70 120 -74 156 -62 532 6 170
13 395 16 499 4 194 18 363 35 448 13 62 76 187 95 187 21 0 24 -23 28 -220 3
-142 7 -182 22 -215 l18 -40 27 85 c22 71 31 87 55 99 25 12 36 11 97 -8 37
-12 68 -23 68 -25 0 -2 -25 -55 -55 -119 -64 -134 -84 -218 -92 -377 -6 -142
9 -214 72 -340 43 -86 45 -91 30 -114 -15 -22 -15 -28 -1 -53 22 -44 141 -96
228 -101 95 -6 132 9 147 58 8 26 33 59 79 104 60 58 75 80 138 213 40 81 80
166 90 188 10 22 20 43 22 48 2 4 -10 7 -26 7 -72 0 -148 44 -193 111 -23 33
-26 44 -19 76 5 21 17 43 26 50 33 24 137 10 183 -25 l26 -19 37 28 36 29 21
-54 c35 -94 153 -356 163 -362 33 -20 80 29 145 150 38 71 368 463 578 686
325 346 339 360 353 360 6 0 12 -11 12 -24z m491 -346 c101 -11 186 -24 190
-28 3 -4 57 -128 119 -277 62 -148 123 -292 136 -318 46 -94 31 -101 -113 -53
-111 37 -344 82 -563 111 -69 8 -153 21 -187 27 -60 11 -62 12 -57 37 15 63
59 91 145 91 42 0 82 33 54 44 -9 3 -42 6 -72 6 l-56 0 6 48 c3 27 30 99 62
167 31 66 61 130 66 143 11 28 29 28 270 2z m604 -99 l50 -18 3 -194 c2 -107
-2 -285 -9 -396 -10 -170 -14 -200 -25 -185 -8 10 -13 47 -14 94 0 64 -8 102
-46 220 -25 79 -46 155 -46 171 0 15 -3 25 -7 23 -7 -5 -81 227 -81 253 0 51
80 65 175 32z m550 -161 c8 -16 15 -52 15 -80 0 -74 -21 -243 -31 -255 -5 -5
-9 -35 -9 -67 0 -44 -60 -454 -74 -502 -1 -5 -24 121 -50 280 -27 159 -63 357
-81 439 -48 217 -49 199 10 206 28 3 85 7 127 7 76 2 78 2 93 -28z m-5085
-150 c-19 -50 -26 -59 -52 -64 -63 -12 -68 -10 -68 37 0 42 1 43 63 79 78 45
89 34 57 -52z m5915 -115 c10 -64 -153 -744 -198 -825 -17 -30 -32 -57 -34
-59 -7 -9 -62 53 -86 97 -56 106 -59 201 -13 435 29 150 56 214 117 279 49 53
151 118 185 118 19 0 24 -7 29 -45z m-1250 -35 c21 -41 18 -97 -10 -155 l-23
-50 -1 41 c-1 48 10 194 15 194 2 0 10 -13 19 -30z m-3105 -410 c0 -5 20 -21
45 -36 40 -23 52 -25 98 -20 37 5 57 3 71 -7 23 -17 17 -29 -36 -68 -70 -50
-150 -37 -230 39 -21 19 -28 35 -28 64 0 38 0 38 40 38 22 0 40 -4 40 -10z
m2086 -429 c9 -11 34 -38 55 -61 36 -39 42 -42 79 -37 22 3 51 14 66 26 24 19
84 30 84 15 0 -4 -16 -28 -35 -54 -40 -55 -73 -70 -153 -70 -66 0 -108 23
-152 82 -36 50 -36 57 -9 92 24 31 43 33 65 7z m476 -962 c22 -29 16 -51 -25
-97 l-21 -22 -23 22 c-29 27 -29 39 0 89 25 44 41 46 69 8z"/>
<path d="M1163 4043 c15 -2 37 -2 50 0 12 2 0 4 -28 4 -27 0 -38 -2 -22 -4z"/>
<path d="M1268 4043 c12 -2 30 -2 40 0 9 3 -1 5 -23 4 -22 0 -30 -2 -17 -4z"/>
<path d="M1093 3620 c0 -30 2 -43 4 -27 2 15 2 39 0 55 -2 15 -4 2 -4 -28z"/>
<path d="M1102 3440 c0 -14 2 -19 5 -12 2 6 2 18 0 25 -3 6 -5 1 -5 -13z"/>
<path d="M1102 3390 c0 -14 2 -19 5 -12 2 6 2 18 0 25 -3 6 -5 1 -5 -13z"/>
<path d="M2673 3653 c9 -2 25 -2 35 0 9 3 1 5 -18 5 -19 0 -27 -2 -17 -5z"/>
<path d="M2591 3474 c0 -11 3 -14 6 -6 3 7 2 16 -1 19 -3 4 -6 -2 -5 -13z"/>
<path d="M2582 3400 c0 -14 2 -19 5 -12 2 6 2 18 0 25 -3 6 -5 1 -5 -13z"/>
<path d="M2941 1891 c-19 -12 -6 -43 16 -39 10 2 18 12 18 22 0 22 -14 29 -34
17z"/>
<path d="M2803 1420 c-56 -34 -36 -61 29 -39 39 13 41 12 65 -15 26 -30 53
-29 53 3 0 26 -55 71 -88 71 -15 0 -42 -9 -59 -20z"/>
<path d="M5014 2990 c0 -129 2 -182 3 -117 2 64 2 170 0 235 -1 64 -3 11 -3
-118z"/>
</g>
</svg>
